<svg 
          width="8" 
          height="10.696721076965332" fill="none" 
          xmlns="http://www.w3.org/2000/svg">
          <path d="M 5.428571428571428 2.3399077355861664 C 5.428571428571428 1.8966347891611335 5.278061662401472 1.4715171682750494 5.010152544294084 1.158075859328278 C 4.742243426186697 0.8446345503815067 4.378880705152239 0.6685450673103334 4 0.6685450673103333 C 3.621119294847761 0.6685450673103334 3.257756573813302 0.8446345503815067 2.989847455705915 1.158075859328278 C 2.721938337598528 1.4715171682750494 2.5714285714285716 1.8966347891611335 2.571428571428571 2.3399077355861664 L 2.571428571428571 2.674180269241333 L 5.428571428571428 2.674180269241333 L 5.428571428571428 2.3399077355861664 Z M 6 2.3399077355861664 L 6 2.674180269241333 L 8 2.674180269241333 L 8 9.359630942344666 C 8 9.71424930745437 7.8795919588633945 10.054343153118372 7.665264674595424 10.305096188321272 C 7.450937390327453 10.555849223524172 7.160247428076607 10.696721076965332 6.857142857142857 10.696721076965332 L 1.1428571428571428 10.696721076965332 C 0.839752571923392 10.696721076965332 0.5490624053137643 10.555849223524172 0.3347351210457938 10.305096188321272 C 0.1204078367778233 10.054343153118372 1.2688263138573217e-16 9.71424930745437 0 9.359630942344666 L 0 2.674180269241333 L 2 2.674180269241333 L 2 2.3399077355861664 C 2 1.7193256265304768 2.2107137952532083 1.1241608935325331 2.5857865469796315 0.6853430769464097 C 2.9608592987060547 0.24652526036028632 3.4695670264107843 4.824521823728796e-16 4 0 C 4.530432973589216 2.5978194435462747e-16 5.039140701293945 0.24652526036028632 5.414213453020368 0.6853430769464097 C 5.789286204746791 1.1241608935325331 5.999999999999999 1.7193256265304768 6 2.3399077355861664 Z M 5.63085719517299 5.91929808717282 C 5.684506697314125 5.856530639656576 5.714646477151306 5.771399647356779 5.714646475655692 5.682633072137833 C 5.714646474160076 5.593866496918887 5.6845067015716 5.508735504619089 5.63085719517299 5.445968057102846 C 5.577207688774381 5.383200609586602 5.504443287849425 5.3479381472851815 5.428571428571428 5.34793814553538 C 5.3526995692934305 5.347938143785579 5.279935168368475 5.383200614567651 5.226285661969865 5.445968057102846 L 3.714285714285714 7.215607059397655 L 3.0594286237444193 6.448785658068346 C 3.032864085265568 6.417706373528875 3.0013274614300043 6.393052882414621 2.966619219098772 6.376232895145506 C 2.93191097676754 6.359412907876391 2.8947107877050122 6.350756065288009 2.8571428571428568 6.35075606528801 C 2.8195749265807013 6.350756065288009 2.782374737518174 6.359412907876391 2.747666495186942 6.376232895145506 C 2.7129582528557097 6.393052882414621 2.681421629020146 6.417706373528875 2.6548570905412947 6.448785658068346 C 2.6282925520624434 6.479864942607816 2.607220361275332 6.516761337641369 2.5928437369210378 6.557368380001094 C 2.5784671125667433 6.597975422360819 2.5710675375802174 6.641497927437157 2.5710675375802174 6.6854506731033325 C 2.5710675375802174 6.729403418769508 2.5784671125667433 6.772925923845846 2.5928437369210378 6.813532966205571 C 2.607220361275332 6.854140008565296 2.6282925520624434 6.891036403598849 2.6548570905412947 6.9221156881383195 L 3.5119999476841515 7.924933289103819 C 3.5385403356381824 7.956062914614065 3.5700692342860356 7.9807606449141835 3.604780742100307 7.9976122917301495 C 3.639492249914578 8.014463938546115 3.6767044024808064 8.02313821480567 3.714285714285714 8.02313821480567 C 3.7518670260906215 8.02313821480567 3.7890791786568503 8.014463938546115 3.8237906864711215 7.9976122917301495 C 3.8585021942853928 7.9807606449141835 3.8900310929332456 7.956062914614065 3.9165714808872765 7.924933289103819 L 5.63085719517299 5.91929808717282 Z" fill="rgb(0,0,0)"/>
        </svg>